<svg width="130" height="122" viewBox="0 0 130 122" fill="none" xmlns="http://www.w3.org/2000/svg">
<circle cx="9.24242" cy="9.24242" r="9.24242" fill="#F2E2ED"/>
<circle cx="36.9697" cy="9.24249" r="9.24242" fill="#F2E2ED"/>
<circle cx="64.6969" cy="9.24249" r="9.24242" fill="#F2E2ED"/>
<circle cx="92.4242" cy="9.24249" r="9.24242" fill="#F2E2ED"/>
<circle cx="120.152" cy="9.24249" r="9.24242" fill="#F2E2ED"/>
<circle cx="9.24242" cy="35.1212" r="9.24242" fill="#F2E2ED"/>
<circle cx="36.9697" cy="35.1212" r="9.24242" fill="#F2E2ED"/>
<circle cx="64.6969" cy="35.1212" r="9.24242" fill="#F2E2ED"/>
<circle cx="92.4242" cy="35.1212" r="9.24242" fill="#F2E2ED"/>
<circle cx="120.152" cy="35.1212" r="9.24242" fill="#F2E2ED"/>
<circle cx="9.24242" cy="61.0001" r="9.24242" fill="#F2E2ED"/>
<circle cx="36.9697" cy="61" r="9.24242" fill="#F2E2ED"/>
<circle cx="64.6969" cy="61" r="9.24242" fill="#F2E2ED"/>
<circle cx="92.4242" cy="61" r="9.24242" fill="#F2E2ED"/>
<circle cx="120.152" cy="61" r="9.24242" fill="#F2E2ED"/>
<circle cx="9.24242" cy="86.8788" r="9.24242" fill="#F2E2ED"/>
<circle cx="36.9697" cy="86.8788" r="9.24242" fill="#F2E2ED"/>
<circle cx="64.6969" cy="86.8788" r="9.24242" fill="#F2E2ED"/>
<circle cx="92.4242" cy="86.8788" r="9.24242" fill="#F2E2ED"/>
<circle cx="120.152" cy="86.8788" r="9.24242" fill="#F2E2ED"/>
<circle cx="9.24242" cy="112.758" r="9.24242" fill="#F2E2ED"/>
<circle cx="36.9697" cy="112.758" r="9.24242" fill="#F2E2ED"/>
<circle cx="64.6969" cy="112.758" r="9.24242" fill="#F2E2ED"/>
<circle cx="92.4242" cy="112.758" r="9.24242" fill="#F2E2ED"/>
<circle cx="120.152" cy="112.758" r="9.24242" fill="#F2E2ED"/>
</svg>
