<svg width="1397" height="592" viewBox="0 0 1397 592" fill="none" xmlns="http://www.w3.org/2000/svg">
<path opacity="0.5" d="M0.700198 591.269L61.2225 540.956M61.2225 540.956L67.3906 535.829M61.2225 540.956L3.37631 581.066M61.2225 540.956L74.3552 531.85M67.3906 535.829L73.2804 530.932M67.3906 535.829L6.05483 570.866M67.3906 535.829L74.3552 531.85M73.2804 530.932L78.0046 527.005M73.2804 530.932L8.73536 560.67M73.2804 530.932L80.4283 527.639M78.0046 527.005L84.2096 521.847M78.0046 527.005L11.4198 550.476M78.0046 527.005L84.7945 524.612M84.2096 521.847L89.2338 517.67M84.2096 521.847L14.1005 540.288M84.2096 521.847L91.5765 519.909M89.2338 517.67L93.9514 513.748M89.2338 517.67L16.7847 530.102M89.2338 517.67L96.6377 516.4M93.9514 513.748L1136.97 -353.321M93.9514 513.748L19.4695 519.92M93.9514 513.748L101.345 513.136M74.3552 531.85L80.4283 527.639M74.3552 531.85L87.1404 524.547M80.4283 527.639L84.7945 524.612M80.4283 527.639L87.1404 524.547M84.7945 524.612L91.5765 519.909M84.7945 524.612L90.6236 522.557M91.5765 519.909L96.6377 516.4M91.5765 519.909L98.4012 518.114M96.6377 516.4L101.345 513.136M96.6377 516.4L103.448 515.231M101.345 513.136L1211.94 -256.939M101.345 513.136L108.095 512.576M87.1404 524.547L90.6236 522.557M87.1404 524.547L94.1803 521.303M90.6236 522.557L98.4012 518.114M90.6236 522.557L94.1803 521.303M98.4012 518.114L103.448 515.231M98.4012 518.114L104.696 516.458M103.448 515.231L108.095 512.576M103.448 515.231L109.681 514.161M108.095 512.576L1277.03 -155.171M108.095 512.576L114.224 512.068M94.1803 521.303L104.696 516.458M94.1803 521.303L117.417 513.112M104.696 516.458L109.681 514.161M104.696 516.458L117.417 513.112M109.681 514.161L114.224 512.068M109.681 514.161L118.955 512.57M114.224 512.068L1331.84 -48.9248M114.224 512.068L122.269 511.402M117.417 513.112L118.955 512.57M117.417 513.112L120.459 512.312M118.955 512.57L122.269 511.402M118.955 512.57L120.459 512.312M122.269 511.402L1409.83 57.532M122.269 511.402L124.678 511.202M120.459 512.312L124.678 511.202M120.459 512.312L129.026 510.842M124.678 511.202L1409.52 173.242M124.678 511.202L129.026 510.842M129.026 510.842L1432.04 287.247M129.026 510.842L1443.58 401.911" stroke="black" stroke-opacity="0.65" stroke-width="0.992357"/>
</svg>
